<?xml version="1.0" encoding="utf-8"?>
<svg id="Capa_1" style="enable-background:new 0 0 479 479;" x="0px" y="0px" viewBox="0 0 479 479" xmlns="http://www.w3.org/2000/svg">
  <g>
    <path d="M278.908,246.057l82.667-114.158c2.161-2.984,1.834-7.097-0.771-9.702c-2.605-2.606-6.718-2.933-9.702-0.771&#10;&#9;&#9;l-114.158,82.667C216.351,205.416,200,222.58,200,243.5c0,21.78,17.72,39.5,39.5,39.5C260.42,283,277.585,266.649,278.908,246.057z&#10;&#9;&#9; M274.904,226.011c-3.846-7.754-10.162-14.07-17.915-17.915l64.944-47.028L274.904,226.011z M215,243.5&#10;&#9;&#9;c0-13.509,10.991-24.5,24.5-24.5s24.5,10.991,24.5,24.5S253.009,268,239.5,268S215,257.009,215,243.5z" style="fill: rgb(108, 145, 207);"/>
    <path d="M478.996,243.424c-0.002-3.423-0.071-6.855-0.216-10.297c-1.172-27.675-7.203-54.697-17.614-79.992&#10;&#9;&#9;c-0.094-0.433-0.221-0.864-0.397-1.288c-0.192-0.464-0.428-0.898-0.697-1.301c-11.622-27.317-28.374-52.56-49.682-74.34&#10;&#9;&#9;c-0.053-0.055-0.108-0.107-0.162-0.162c-0.349-0.683-0.805-1.326-1.377-1.897c-0.573-0.573-1.217-1.03-1.902-1.379&#10;&#9;&#9;c-21.872-21.487-47.282-38.378-74.83-50.044c-0.308-0.183-0.626-0.354-0.967-0.495c-0.317-0.131-0.638-0.23-0.96-0.316&#10;&#9;&#9;c-23.8-9.832-49.156-15.785-75.185-17.426c-5.086-0.32-10.151-0.465-15.199-0.474C239.705,4.011,239.604,4,239.5,4&#10;&#9;&#9;c-0.107,0-0.212,0.012-0.318,0.016c-28.356,0.024-56.064,4.941-82.563,14.714C126.428,29.867,99.168,46.736,75.595,68.87&#10;&#9;&#9;c-1.796,1.687-3.553,3.404-5.291,5.137c-0.051,0.049-0.106,0.091-0.156,0.141c-0.063,0.063-0.117,0.131-0.177,0.195&#10;&#9;&#9;c-20.95,20.971-37.631,45.286-49.619,72.397C6.847,177.284,0,209.838,0,243.5c0,48.145,14.272,94.6,41.274,134.344&#10;&#9;&#9;C48.573,388.586,60.778,395,73.921,395H87.5c4.142,0,7.5-3.358,7.5-7.5s-3.358-7.5-7.5-7.5H73.921&#10;&#9;&#9;c-8.17,0-15.736-3.958-20.24-10.586c-7.179-10.567-13.396-21.642-18.621-33.114l22.534-9.334c3.827-1.585,5.644-5.973,4.059-9.799&#10;&#9;&#9;c-1.585-3.827-5.973-5.644-9.799-4.059l-22.543,9.338C20.749,299.701,15.942,275.629,15.13,251H39.5c4.142,0,7.5-3.358,7.5-7.5&#10;&#9;&#9;s-3.358-7.5-7.5-7.5H15.136c0.8-24.642,5.541-48.597,14.146-71.457l22.572,9.35c0.938,0.389,1.911,0.573,2.867,0.573&#10;&#9;&#9;c2.943,0,5.736-1.744,6.932-4.632c1.585-3.827-0.232-8.214-4.059-9.799l-22.556-9.343c10.16-22.358,23.749-42.659,40.508-60.539&#10;&#9;&#9;l17.229,17.229c1.464,1.464,3.384,2.197,5.303,2.197s3.839-0.732,5.303-2.197c2.929-2.929,2.929-7.678,0-10.606L86.149,79.542&#10;&#9;&#9;c18.176-17.009,38.575-30.621,60.502-40.602l9.384,22.654c1.197,2.888,3.989,4.632,6.932,4.632c0.957,0,1.929-0.184,2.867-0.573&#10;&#9;&#9;c3.827-1.585,5.644-5.973,4.059-9.799l-9.384-22.655c22.665-8.508,46.727-13.287,71.491-14.075V43.5c0,4.142,3.358,7.5,7.5,7.5&#10;&#9;&#9;s7.5-3.358,7.5-7.5V19.133c2.351,0.077,4.704,0.178,7.064,0.327c22.176,1.398,43.836,6.136,64.354,13.917l-9.31,22.477&#10;&#9;&#9;c-1.585,3.827,0.232,8.214,4.059,9.799c0.938,0.389,1.911,0.573,2.867,0.573c2.943,0,5.736-1.744,6.932-4.632l9.289-22.425&#10;&#9;&#9;c21.952,10.066,42.347,23.734,60.35,40.619l-16.987,16.987c-2.929,2.929-2.929,7.678,0,10.606c1.464,1.464,3.384,2.197,5.303,2.197&#10;&#9;&#9;s3.839-0.732,5.303-2.197l16.984-16.984c16.872,18.031,30.513,38.436,40.569,60.369l-22.372,9.267&#10;&#9;&#9;c-3.827,1.585-5.644,5.973-4.059,9.799c1.197,2.888,3.989,4.632,6.932,4.632c0.957,0,1.929-0.184,2.867-0.573l22.424-9.289&#10;&#9;&#9;c8.356,22.019,13.215,45.332,14.224,69.158c0.032,0.747,0.048,1.492,0.073,2.238H439.5c-4.142,0-7.5,3.358-7.5,7.5&#10;&#9;&#9;s3.358,7.5,7.5,7.5h24.373c-0.802,24.664-5.584,48.709-14.158,71.456l-22.57-9.349c-3.826-1.584-8.214,0.232-9.799,4.059&#10;&#9;&#9;c-1.585,3.827,0.232,8.214,4.059,9.799l22.544,9.338c-5.224,11.45-11.437,22.521-18.633,33.112&#10;&#9;&#9;C420.814,376.043,413.248,380,405.079,380H391.5c-4.142,0-7.5,3.358-7.5,7.5s3.358,7.5,7.5,7.5h13.579&#10;&#9;&#9;c13.144,0,25.347-6.413,32.646-17.154c27.098-39.884,41.265-86.095,41.271-134.246c0-0.034,0.005-0.066,0.005-0.1&#10;&#9;&#9;C479,243.474,478.996,243.449,478.996,243.424z" style="fill: rgb(108, 145, 207);"/>
    <path d="M327.5,300h-176c-21.78,0-39.5,17.72-39.5,39.5v96c0,21.78,17.72,39.5,39.5,39.5h176c21.78,0,39.5-17.72,39.5-39.5v-96&#10;&#9;&#9;C367,317.72,349.28,300,327.5,300z M352,435.5c0,13.509-10.991,24.5-24.5,24.5h-176c-13.509,0-24.5-10.991-24.5-24.5v-96&#10;&#9;&#9;c0-13.509,10.991-24.5,24.5-24.5h176c13.509,0,24.5,10.991,24.5,24.5V435.5z" style="fill: rgb(108, 145, 207);"/>
    <path d="M204.803,342.197c-2.929-2.929-7.678-2.929-10.606,0l-40,40c-2.929,2.929-2.929,7.678,0,10.606l40,40&#10;&#9;&#9;c1.464,1.464,3.384,2.197,5.303,2.197s3.839-0.732,5.303-2.197c2.929-2.929,2.929-7.678,0-10.606L170.106,387.5l34.697-34.697&#10;&#9;&#9;C207.732,349.875,207.732,345.125,204.803,342.197z" style="fill: rgb(108, 145, 207);"/>
    <path d="M284.803,342.197c-2.929-2.929-7.678-2.929-10.606,0c-2.929,2.929-2.929,7.678,0,10.606l34.697,34.697l-34.697,34.697&#10;&#9;&#9;c-2.929,2.929-2.929,7.678,0,10.606c1.464,1.464,3.384,2.197,5.303,2.197s3.839-0.732,5.303-2.197l40-40&#10;&#9;&#9;c2.929-2.929,2.929-7.678,0-10.606L284.803,342.197z" style="fill: rgb(108, 145, 207);"/>
    <path d="M239.5,396c-1.97,0-3.91,0.8-5.3,2.2c-1.4,1.39-2.2,3.33-2.2,5.3c0,1.97,0.8,3.91,2.2,5.3c1.39,1.4,3.33,2.2,5.3,2.2&#10;&#9;&#9;c1.97,0,3.91-0.8,5.3-2.2c1.4-1.39,2.2-3.33,2.2-5.3c0-1.97-0.8-3.91-2.2-5.3C243.41,396.8,241.47,396,239.5,396z" style="fill: rgb(108, 145, 207);"/>
    <path d="M263.5,396c-1.97,0-3.91,0.8-5.3,2.2c-1.4,1.39-2.2,3.33-2.2,5.3c0,1.97,0.8,3.91,2.2,5.3c1.39,1.4,3.33,2.2,5.3,2.2&#10;&#9;&#9;c1.97,0,3.91-0.8,5.3-2.2c1.4-1.39,2.2-3.33,2.2-5.3c0-1.98-0.8-3.91-2.2-5.3C267.41,396.8,265.47,396,263.5,396z" style="fill: rgb(108, 145, 207);"/>
    <path d="M215.5,396c-1.97,0-3.91,0.8-5.3,2.2c-1.4,1.39-2.2,3.33-2.2,5.3c0,1.97,0.8,3.91,2.2,5.3c1.39,1.4,3.33,2.2,5.3,2.2&#10;&#9;&#9;c1.97,0,3.91-0.8,5.3-2.2c1.4-1.39,2.2-3.33,2.2-5.3c0-1.97-0.8-3.91-2.2-5.3C219.41,396.8,217.47,396,215.5,396z" style="fill: rgb(108, 145, 207);"/>
  </g>
  <g/>
  <g/>
  <g/>
  <g/>
  <g/>
  <g/>
  <g/>
  <g/>
  <g/>
  <g/>
  <g/>
  <g/>
  <g/>
  <g/>
  <g/>
</svg>
