<svg xmlns="http://www.w3.org/2000/svg" viewBox="0 0 511 511">
  <g fill="#6C91CF">
    <path d="M39.5 103c2 0 4-.8 5.3-2.2 1.4-1.4 2.2-3.3 2.2-5.3s-.8-4-2.2-5.3c-1.4-1.4-3.3-2.2-5.3-2.2s-4 .8-5.3 2.2c-1.4 1.4-2.2 3.3-2.2 5.3s.8 4 2.2 5.3c1.4 1.4 3.3 2.2 5.3 2.2zM63.5 103c2 0 4-.8 5.3-2.2 1.4-1.4 2.2-3.3 2.2-5.3s-.8-4-2.2-5.3c-1.4-1.4-3.3-2.2-5.3-2.2s-4 .8-5.3 2.2c-1.4 1.4-2.2 3.3-2.2 5.3s.8 4 2.2 5.3c1.4 1.4 3.3 2.2 5.3 2.2zM87.5 103c2 0 4-.8 5.3-2.2 1.4-1.4 2.2-3.3 2.2-5.3s-.8-4-2.2-5.3c-1.4-1.4-3.3-2.2-5.3-2.2s-4 .8-5.3 2.2c-1.4 1.4-2.2 3.3-2.2 5.3s.8 4 2.2 5.3c1.4 1.4 3.3 2.2 5.3 2.2zM455.5 103h16c4 0 7.5-3.4 7.5-7.5s-3.4-7.5-7.5-7.5h-16c-4 0-7.5 3.4-7.5 7.5s3.4 7.5 7.5 7.5zM439.5 312h-80c-13 0-23.5 10.5-23.5 23.5v56c0 13 10.5 23.5 23.5 23.5h80c13 0 23.5-10.5 23.5-23.5v-56c0-13-10.5-23.5-23.5-23.5zm8.5 79.5c0 4.7-3.8 8.5-8.5 8.5h-80c-4.7 0-8.5-3.8-8.5-8.5v-56c0-4.7 3.8-8.5 8.5-8.5h80c4.7 0 8.5 3.8 8.5 8.5v56zM359.5 231c13 0 23.5-10.5 23.5-23.5S372.5 184 359.5 184 336 194.5 336 207.5s10.5 23.5 23.5 23.5zm0-32c4.7 0 8.5 3.8 8.5 8.5s-3.8 8.5-8.5 8.5-8.5-3.8-8.5-8.5 3.8-8.5 8.5-8.5z"/>
    <path d="M423.5 344h-48c-4 0-7.5 3.4-7.5 7.5s3.4 7.5 7.5 7.5h48c4 0 7.5-3.4 7.5-7.5s-3.4-7.5-7.5-7.5zM399.5 368h-24c-4 0-7.5 3.4-7.5 7.5s3.4 7.5 7.5 7.5h24c4 0 7.5-3.4 7.5-7.5s-3.4-7.5-7.5-7.5zM39.5 175h16c4 0 7.5-3.4 7.5-7.5s-3.4-7.5-7.5-7.5h-16c-4 0-7.5 3.4-7.5 7.5s3.4 7.5 7.5 7.5zM39.5 215h16c4 0 7.5-3.4 7.5-7.5s-3.4-7.5-7.5-7.5h-16c-4 0-7.5 3.4-7.5 7.5s3.4 7.5 7.5 7.5zM63.5 240h-8c-4 0-7.5 3.4-7.5 7.5s3.4 7.5 7.5 7.5h8c4 0 7.5-3.4 7.5-7.5s-3.4-7.5-7.5-7.5zM39.5 295h16c4 0 7.5-3.4 7.5-7.5s-3.4-7.5-7.5-7.5h-16c-4 0-7.5 3.4-7.5 7.5s3.4 7.5 7.5 7.5zM87.5 175h32c4 0 7.5-3.4 7.5-7.5s-3.4-7.5-7.5-7.5h-32c-4 0-7.5 3.4-7.5 7.5s3.4 7.5 7.5 7.5zM87.5 295h64c4 0 7.5-3.4 7.5-7.5s-3.4-7.5-7.5-7.5h-64c-4 0-7.5 3.4-7.5 7.5s3.4 7.5 7.5 7.5zM87.5 215h80c4 0 7.5-3.4 7.5-7.5s-3.4-7.5-7.5-7.5h-80c-4 0-7.5 3.4-7.5 7.5s3.4 7.5 7.5 7.5zM95.5 240c-4 0-7.5 3.4-7.5 7.5s3.4 7.5 7.5 7.5h32c4 0 7.5-3.4 7.5-7.5s-3.4-7.5-7.5-7.5h-32zM191 247.5c0-4-3.4-7.5-7.5-7.5h-24c-4 0-7.5 3.4-7.5 7.5s3.4 7.5 7.5 7.5h24c4 0 7.5-3.4 7.5-7.5zM215.5 240c-2 0-4 .8-5.3 2.2-1.4 1.4-2.2 3.3-2.2 5.3s.8 4 2.2 5.3c1.4 1.4 3.3 2.2 5.3 2.2s4-.8 5.3-2.2c1.4-1.4 2.2-3.3 2.2-5.3s-.8-4-2.2-5.3c-1.4-1.4-3.3-2.2-5.3-2.2zM194.2 322.2c-1.4 1.4-2.2 3.3-2.2 5.3s.8 4 2.2 5.3c1.4 1.4 3.3 2.2 5.3 2.2s4-.8 5.3-2.2c1.4-1.4 2.2-3.3 2.2-5.3s-.8-4-2.2-5.3c-1.4-1.4-3.3-2.2-5.3-2.2s-4 .8-5.3 2.2zM63.5 320h-8c-4 0-7.5 3.4-7.5 7.5s3.4 7.5 7.5 7.5h8c4 0 7.5-3.4 7.5-7.5s-3.4-7.5-7.5-7.5zM175 327.5c0-4-3.4-7.5-7.5-7.5h-72c-4 0-7.5 3.4-7.5 7.5s3.4 7.5 7.5 7.5h72c4 0 7.5-3.4 7.5-7.5zM63.5 360h-8c-4 0-7.5 3.4-7.5 7.5s3.4 7.5 7.5 7.5h8c4 0 7.5-3.4 7.5-7.5s-3.4-7.5-7.5-7.5zM95.5 360c-4 0-7.5 3.4-7.5 7.5s3.4 7.5 7.5 7.5h48c4 0 7.5-3.4 7.5-7.5s-3.4-7.5-7.5-7.5h-48zM207 367.5c0-4-3.4-7.5-7.5-7.5h-24c-4 0-7.5 3.4-7.5 7.5s3.4 7.5 7.5 7.5h24c4 0 7.5-3.4 7.5-7.5zM55.5 400h-16c-4 0-7.5 3.4-7.5 7.5s3.4 7.5 7.5 7.5h16c4 0 7.5-3.4 7.5-7.5s-3.4-7.5-7.5-7.5zM111.5 400h-24c-4 0-7.5 3.4-7.5 7.5s3.4 7.5 7.5 7.5h24c4 0 7.5-3.4 7.5-7.5s-3.4-7.5-7.5-7.5zM223.5 400h-16c-4 0-7.5 3.4-7.5 7.5s3.4 7.5 7.5 7.5h16c4 0 7.5-3.4 7.5-7.5s-3.4-7.5-7.5-7.5zM151.5 175h64c4 0 7.5-3.4 7.5-7.5s-3.4-7.5-7.5-7.5h-64c-4 0-7.5 3.4-7.5 7.5s3.4 7.5 7.5 7.5zM175.5 400h-32c-4 0-7.5 3.4-7.5 7.5s3.4 7.5 7.5 7.5h32c4 0 7.5-3.4 7.5-7.5s-3.4-7.5-7.5-7.5z"/>
    <path d="M471.5 56H263V39.5c0-4-3.4-7.5-7.5-7.5s-7.5 3.4-7.5 7.5V56H39.5C17.7 56 0 73.7 0 95.5v320C0 437.3 17.7 455 39.5 455H248v16.5c0 4 3.4 7.5 7.5 7.5s7.5-3.4 7.5-7.5V455h208.5c21.8 0 39.5-17.7 39.5-39.5v-320c0-21.8-17.7-39.5-39.5-39.5zm0 15C485 71 496 82 496 95.5V120H263v-17h160.5c4 0 7.5-3.4 7.5-7.5s-3.4-7.5-7.5-7.5H263V71h208.5zm-432 0H248v17H119.5c-4 0-7.5 3.4-7.5 7.5s3.4 7.5 7.5 7.5H248v17H15V95.5C15 82 26 71 39.5 71zm0 369C26 440 15 429 15 415.5V135h233v305H39.5zM263 327h32.5c4.7 0 8.5 3.8 8.5 8.5v56c0 4.7-3.8 8.5-8.5 8.5H263v-73zm0-52.4l48.5-48.5 42.7 42.8c3 3 7.7 3 10.6 0l83.2-83.2v86c0 4.6-3.8 8.4-8.5 8.4H263v-5.4zm96.5-21.7L316.8 210c-3-3-7.7-3-10.6 0L263 253.4V175h174.4l-78 78zm112 187H263v-25h32.5c13 0 23.5-10.5 23.5-23.5v-56c0-13-10.5-23.5-23.5-23.5H263v-17h176.5c13 0 23.5-10.5 23.5-23.5v-88c0-13-10.5-23.5-23.5-23.5H263v-25h233v280.5c0 13.5-11 24.5-24.5 24.5z"/>
  </g>
</svg>
