<svg xmlns="http://www.w3.org/2000/svg" width="438.5" height="438.5">
  <path fill="#6C91CF" d="M409 114.6c-19.5-33.6-46-60.2-79.7-79.8-33.6-19.6-70.2-29.4-110-29.4s-76.5 9.8-110 29.4C75.5 54.4 49 81 29.2 114.6 10 148.2 0 185 0 224.6c0 47.8 14 90.8 41.8 129 28 38 64 64.5 108 79.2 5.2 1 9 .2 11.5-2 2.5-2.3 3.7-5.2 3.7-8.6v-15.4l-.3-25.4-6.5 1c-4.2 1-9.5 1.2-16 1-6.3 0-13-.6-19.7-2-7-1-13.3-4-19.2-8.4-6-4.5-10-10.4-12.5-17.6l-3-6.6c-1.8-4.3-4.8-9.2-9-14.5-4-5.4-8-9-12.3-11l-2-1.3c-1.3-1-2.5-2-3.7-3.4-1-1.4-2-2.7-2.6-4-.5-1.4 0-2.5 1.5-3.3 1.5-1 4.3-1.3 8.2-1.3l5.7 1c3.8.6 8.5 3 14 6.7 5.7 3.8 10.3 8.8 14 15 4.3 7.7 9.6 13.6 15.8 17.7 6.2 4 12.4 6 18.7 6 6.3 0 11.7-.3 16.3-1.3 4.5-.8 8.8-2.3 12.8-4.2 1.7-12.7 6.4-22.5 14-29.4-11-1-20.6-2.8-29.3-5-8.6-2.4-17.6-6-26.8-11.3-9.2-5-17-11.4-23-19s-11-17.6-15-30c-4-12.3-5.8-26.6-5.8-42.8 0-23 7.5-42.6 22.5-58.8-7-17.3-6.5-36.7 2-58.3 5.4-1.6 13.6-.3 24.5 4 10.8 4.3 18.8 8 23.8 11s9 5.6 12.2 7.7c17.7-5 36-7.4 54.8-7.4s37 2.5 54.8 7.4l11-6.8c7.4-4.7 16-9 26.2-12.7 10-3.8 17.8-5 23-3 8.7 21.4 9.5 40.8 2.4 58 15 16.3 22.6 36 22.6 59 0 16-2 30.4-6 43-3.8 12.3-8.8 22.3-15 30-6.2 7.4-14 13.7-23 18.8-9.4 5.3-18.3 9-27 11.3-8.6 2.3-18.4 4-29.2 5 10 8.7 14.8 22.2 14.8 40.7v60.2c0 3.4 1.2 6.3 3.6 8.6 2.4 2.2 6 3 11.3 2 44-14.7 80-41 108-79.3 28-38 41.8-81 41.8-129 0-39.6-9.8-76.3-29.4-110z"/>
</svg>
