<?xml version="1.0" encoding="utf-8"?>
<svg id="Capa_1" style="enable-background:new 0 0 511 511;" x="0px" y="0px" viewBox="0 0 511 511" xmlns="http://www.w3.org/2000/svg">
  <g>
    <path d="M39.5,103c1.97,0,3.91-0.8,5.3-2.2c1.4-1.39,2.2-3.33,2.2-5.3s-0.8-3.91-2.2-5.3c-1.39-1.4-3.33-2.2-5.3-2.2&#10;&#9;&#9;c-1.97,0-3.91,0.8-5.3,2.2c-1.4,1.39-2.2,3.33-2.2,5.3s0.8,3.91,2.2,5.3C35.59,102.2,37.53,103,39.5,103z" style="fill: rgb(108, 145, 207);"/>
    <path d="M63.5,103c1.97,0,3.91-0.8,5.3-2.2c1.4-1.39,2.2-3.33,2.2-5.3s-0.8-3.91-2.2-5.3c-1.39-1.4-3.33-2.2-5.3-2.2&#10;&#9;&#9;c-1.97,0-3.91,0.8-5.3,2.2c-1.4,1.39-2.2,3.33-2.2,5.3s0.8,3.91,2.2,5.3C59.59,102.2,61.53,103,63.5,103z" style="fill: rgb(108, 145, 207);"/>
    <path d="M87.5,103c1.97,0,3.91-0.8,5.3-2.2c1.4-1.39,2.2-3.33,2.2-5.3s-0.8-3.91-2.2-5.3c-1.39-1.4-3.33-2.2-5.3-2.2&#10;&#9;&#9;c-1.97,0-3.91,0.8-5.3,2.2c-1.4,1.39-2.2,3.33-2.2,5.3c0,1.98,0.8,3.91,2.2,5.3C83.59,102.2,85.53,103,87.5,103z" style="fill: rgb(108, 145, 207);"/>
    <path d="M455.5,103h16c4.142,0,7.5-3.358,7.5-7.5s-3.358-7.5-7.5-7.5h-16c-4.142,0-7.5,3.358-7.5,7.5S451.358,103,455.5,103z" style="fill: rgb(108, 145, 207);"/>
    <path d="M439.5,312h-80c-12.958,0-23.5,10.542-23.5,23.5v56c0,12.958,10.542,23.5,23.5,23.5h80c12.958,0,23.5-10.542,23.5-23.5v-56&#10;&#9;&#9;C463,322.542,452.458,312,439.5,312z M448,391.5c0,4.687-3.813,8.5-8.5,8.5h-80c-4.687,0-8.5-3.813-8.5-8.5v-56&#10;&#9;&#9;c0-4.687,3.813-8.5,8.5-8.5h80c4.687,0,8.5,3.813,8.5,8.5V391.5z" style="fill: rgb(108, 145, 207);"/>
    <path d="M359.5,231c12.958,0,23.5-10.542,23.5-23.5S372.458,184,359.5,184S336,194.542,336,207.5S346.542,231,359.5,231z&#10;&#9;&#9; M359.5,199c4.687,0,8.5,3.813,8.5,8.5s-3.813,8.5-8.5,8.5s-8.5-3.813-8.5-8.5S354.813,199,359.5,199z" style="fill: rgb(108, 145, 207);"/>
    <path d="M423.5,344h-48c-4.142,0-7.5,3.358-7.5,7.5s3.358,7.5,7.5,7.5h48c4.142,0,7.5-3.358,7.5-7.5S427.642,344,423.5,344z" style="fill: rgb(108, 145, 207);"/>
    <path d="M399.5,368h-24c-4.142,0-7.5,3.358-7.5,7.5s3.358,7.5,7.5,7.5h24c4.142,0,7.5-3.358,7.5-7.5S403.642,368,399.5,368z" style="fill: rgb(108, 145, 207);"/>
    <path d="M39.5,175h16c4.142,0,7.5-3.358,7.5-7.5s-3.358-7.5-7.5-7.5h-16c-4.142,0-7.5,3.358-7.5,7.5S35.358,175,39.5,175z" style="fill: rgb(108, 145, 207);"/>
    <path d="M39.5,215h16c4.142,0,7.5-3.358,7.5-7.5s-3.358-7.5-7.5-7.5h-16c-4.142,0-7.5,3.358-7.5,7.5S35.358,215,39.5,215z" style="fill: rgb(108, 145, 207);"/>
    <path d="M63.5,240h-8c-4.142,0-7.5,3.358-7.5,7.5s3.358,7.5,7.5,7.5h8c4.142,0,7.5-3.358,7.5-7.5S67.642,240,63.5,240z" style="fill: rgb(108, 145, 207);"/>
    <path d="M39.5,295h16c4.142,0,7.5-3.358,7.5-7.5s-3.358-7.5-7.5-7.5h-16c-4.142,0-7.5,3.358-7.5,7.5S35.358,295,39.5,295z" style="fill: rgb(108, 145, 207);"/>
    <path d="M87.5,175h32c4.142,0,7.5-3.358,7.5-7.5s-3.358-7.5-7.5-7.5h-32c-4.142,0-7.5,3.358-7.5,7.5S83.358,175,87.5,175z" style="fill: rgb(108, 145, 207);"/>
    <path d="M87.5,295h64c4.142,0,7.5-3.358,7.5-7.5s-3.358-7.5-7.5-7.5h-64c-4.142,0-7.5,3.358-7.5,7.5S83.358,295,87.5,295z" style="fill: rgb(108, 145, 207);"/>
    <path d="M87.5,215h80c4.142,0,7.5-3.358,7.5-7.5s-3.358-7.5-7.5-7.5h-80c-4.142,0-7.5,3.358-7.5,7.5S83.358,215,87.5,215z" style="fill: rgb(108, 145, 207);"/>
    <path d="M95.5,240c-4.142,0-7.5,3.358-7.5,7.5s3.358,7.5,7.5,7.5h32c4.142,0,7.5-3.358,7.5-7.5s-3.358-7.5-7.5-7.5H95.5z" style="fill: rgb(108, 145, 207);"/>
    <path d="M191,247.5c0-4.142-3.358-7.5-7.5-7.5h-24c-4.142,0-7.5,3.358-7.5,7.5s3.358,7.5,7.5,7.5h24&#10;&#9;&#9;C187.642,255,191,251.642,191,247.5z" style="fill: rgb(108, 145, 207);"/>
    <path d="M215.5,240c-1.97,0-3.91,0.8-5.3,2.2c-1.4,1.39-2.2,3.33-2.2,5.3s0.8,3.91,2.2,5.3c1.39,1.4,3.33,2.2,5.3,2.2&#10;&#9;&#9;c1.97,0,3.91-0.8,5.3-2.2c1.4-1.39,2.2-3.33,2.2-5.3s-0.8-3.91-2.2-5.3C219.41,240.8,217.47,240,215.5,240z" style="fill: rgb(108, 145, 207);"/>
    <path d="M194.2,322.2c-1.4,1.39-2.2,3.33-2.2,5.3s0.8,3.91,2.2,5.3c1.39,1.4,3.33,2.2,5.3,2.2c1.97,0,3.91-0.8,5.3-2.2&#10;&#9;&#9;c1.4-1.39,2.2-3.33,2.2-5.3s-0.8-3.91-2.2-5.3c-1.39-1.4-3.32-2.2-5.3-2.2S195.59,320.8,194.2,322.2z" style="fill: rgb(108, 145, 207);"/>
    <path d="M63.5,320h-8c-4.142,0-7.5,3.358-7.5,7.5s3.358,7.5,7.5,7.5h8c4.142,0,7.5-3.358,7.5-7.5S67.642,320,63.5,320z" style="fill: rgb(108, 145, 207);"/>
    <path d="M175,327.5c0-4.142-3.358-7.5-7.5-7.5h-72c-4.142,0-7.5,3.358-7.5,7.5s3.358,7.5,7.5,7.5h72&#10;&#9;&#9;C171.642,335,175,331.642,175,327.5z" style="fill: rgb(108, 145, 207);"/>
    <path d="M63.5,360h-8c-4.142,0-7.5,3.358-7.5,7.5s3.358,7.5,7.5,7.5h8c4.142,0,7.5-3.358,7.5-7.5S67.642,360,63.5,360z" style="fill: rgb(108, 145, 207);"/>
    <path d="M95.5,360c-4.142,0-7.5,3.358-7.5,7.5s3.358,7.5,7.5,7.5h48c4.142,0,7.5-3.358,7.5-7.5s-3.358-7.5-7.5-7.5H95.5z" style="fill: rgb(108, 145, 207);"/>
    <path d="M207,367.5c0-4.142-3.358-7.5-7.5-7.5h-24c-4.142,0-7.5,3.358-7.5,7.5s3.358,7.5,7.5,7.5h24&#10;&#9;&#9;C203.642,375,207,371.642,207,367.5z" style="fill: rgb(108, 145, 207);"/>
    <path d="M55.5,400h-16c-4.142,0-7.5,3.358-7.5,7.5s3.358,7.5,7.5,7.5h16c4.142,0,7.5-3.358,7.5-7.5S59.642,400,55.5,400z" style="fill: rgb(108, 145, 207);"/>
    <path d="M111.5,400h-24c-4.142,0-7.5,3.358-7.5,7.5s3.358,7.5,7.5,7.5h24c4.142,0,7.5-3.358,7.5-7.5S115.642,400,111.5,400z" style="fill: rgb(108, 145, 207);"/>
    <path d="M223.5,400h-16c-4.142,0-7.5,3.358-7.5,7.5s3.358,7.5,7.5,7.5h16c4.142,0,7.5-3.358,7.5-7.5S227.642,400,223.5,400z" style="fill: rgb(108, 145, 207);"/>
    <path d="M151.5,175h64c4.142,0,7.5-3.358,7.5-7.5s-3.358-7.5-7.5-7.5h-64c-4.142,0-7.5,3.358-7.5,7.5S147.358,175,151.5,175z" style="fill: rgb(108, 145, 207);"/>
    <path d="M175.5,400h-32c-4.142,0-7.5,3.358-7.5,7.5s3.358,7.5,7.5,7.5h32c4.142,0,7.5-3.358,7.5-7.5S179.642,400,175.5,400z" style="fill: rgb(108, 145, 207);"/>
    <path d="M471.5,56H263V39.5c0-4.142-3.358-7.5-7.5-7.5s-7.5,3.358-7.5,7.5V56H39.5C17.72,56,0,73.72,0,95.5v320&#10;&#9;&#9;C0,437.28,17.72,455,39.5,455H248v16.5c0,4.142,3.358,7.5,7.5,7.5s7.5-3.358,7.5-7.5V455h208.5c21.78,0,39.5-17.72,39.5-39.5v-320&#10;&#9;&#9;C511,73.72,493.28,56,471.5,56z M471.5,71c13.509,0,24.5,10.991,24.5,24.5V120H263v-17h160.5c4.142,0,7.5-3.358,7.5-7.5&#10;&#9;&#9;s-3.358-7.5-7.5-7.5H263V71H471.5z M39.5,71H248v17H119.5c-4.142,0-7.5,3.358-7.5,7.5s3.358,7.5,7.5,7.5H248v17H15V95.5&#10;&#9;&#9;C15,81.991,25.991,71,39.5,71z M39.5,440C25.991,440,15,429.009,15,415.5V135h233v136.498c0,0.001,0,0.003,0,0.005V440H39.5z&#10;&#9;&#9; M263,327h32.5c4.687,0,8.5,3.813,8.5,8.5v56c0,4.687-3.813,8.5-8.5,8.5H263V327z M263,274.606l48.5-48.5l42.697,42.697&#10;&#9;&#9;c2.929,2.929,7.678,2.929,10.606,0L448,185.606V271.5c0,4.687-3.813,8.5-8.5,8.5H263V274.606z M359.5,252.894l-42.697-42.697&#10;&#9;&#9;c-2.929-2.929-7.678-2.929-10.606,0L263,253.394V175h174.394L359.5,252.894z M471.5,440H263v-25h32.5&#10;&#9;&#9;c12.958,0,23.5-10.542,23.5-23.5v-56c0-12.958-10.542-23.5-23.5-23.5H263v-17h176.5c12.958,0,23.5-10.542,23.5-23.5v-88&#10;&#9;&#9;c0-12.958-10.542-23.5-23.5-23.5H263v-25h233v280.5C496,429.009,485.009,440,471.5,440z" style="fill: rgb(108, 145, 207);"/>
  </g>
  <g/>
  <g/>
  <g/>
  <g/>
  <g/>
  <g/>
  <g/>
  <g/>
  <g/>
  <g/>
  <g/>
  <g/>
  <g/>
  <g/>
  <g/>
</svg>
