<?xml version="1.0" encoding="UTF-8"?>
<!DOCTYPE svg PUBLIC "-//W3C//DTD SVG 1.1//EN" "http://www.w3.org/Graphics/SVG/1.1/DTD/svg11.dtd">
<svg xmlns="http://www.w3.org/2000/svg" xmlns:xlink="http://www.w3.org/1999/xlink" version="1.1" width="217px" height="337px" viewBox="-0.5 -0.5 217 337"><defs/><g><ellipse cx="187" cy="88" rx="20" ry="20" fill="#dae8fc" stroke="#6c8ebf" stroke-width="16" pointer-events="all"/><path d="M 41.05 102.23 L 92.78 153.93" fill="none" stroke="#6c8ebf" stroke-width="16" stroke-miterlimit="10" pointer-events="stroke"/><path d="M 43 76 L 91 40" fill="none" stroke="#6c8ebf" stroke-width="16" stroke-miterlimit="10" pointer-events="stroke"/><ellipse cx="27" cy="88" rx="20" ry="20" fill="#dae8fc" stroke="#6c8ebf" stroke-width="16" pointer-events="all"/><path d="M 123 40 L 171 76" fill="none" stroke="#6c8ebf" stroke-width="16" stroke-miterlimit="10" pointer-events="stroke"/><path d="M 107 48 L 107 148" fill="none" stroke="#9673a6" stroke-width="16" stroke-miterlimit="10" pointer-events="stroke"/><ellipse cx="107" cy="28" rx="20" ry="20" fill="#dae8fc" stroke="#6c8ebf" stroke-width="16" pointer-events="all"/><path d="M 121.14 182.14 L 172.86 233.86" fill="none" stroke="#6c8ebf" stroke-width="16" stroke-miterlimit="10" pointer-events="stroke"/><path d="M 107 188 L 107 288" fill="none" stroke="#9673a6" stroke-width="16" stroke-miterlimit="10" pointer-events="stroke"/><ellipse cx="107" cy="168" rx="20" ry="20" fill="#dae8fc" stroke="#6c8ebf" stroke-width="16" pointer-events="all"/><path d="M 171 260 L 123 296" fill="none" stroke="#6c8ebf" stroke-width="16" stroke-miterlimit="10" pointer-events="stroke"/><ellipse cx="187" cy="248" rx="20" ry="20" fill="#dae8fc" stroke="#6c8ebf" stroke-width="16" pointer-events="all"/><path d="M 91 296 L 43 260" fill="none" stroke="#6c8ebf" stroke-width="16" stroke-miterlimit="10" pointer-events="stroke"/><ellipse cx="107" cy="308" rx="20" ry="20" fill="#dae8fc" stroke="#6c8ebf" stroke-width="16" pointer-events="all"/><ellipse cx="27" cy="248" rx="20" ry="20" fill="#dae8fc" stroke="#6c8ebf" stroke-width="16" pointer-events="all"/></g></svg>