<?xml version="1.0" encoding="UTF-8"?>
<!DOCTYPE svg PUBLIC "-//W3C//DTD SVG 1.1//EN" "http://www.w3.org/Graphics/SVG/1.1/DTD/svg11.dtd">
<svg xmlns="http://www.w3.org/2000/svg" xmlns:xlink="http://www.w3.org/1999/xlink" version="1.1" width="323px" height="322px" viewBox="-0.5 -0.5 323 322"><defs/><g><path d="M 251 153.33 L 251 120 Q 251 110 261 110 L 266 110 Q 271 110 271 120 L 271 186.67 Q 271 196.67 268.75 206.41 L 263.25 230.26 Q 261 240 258.75 230.26 L 253.25 206.41 Q 251 196.67 251 186.67 Z" fill="#e1d5e7" stroke="#9673a6" stroke-width="22" stroke-miterlimit="10" pointer-events="all"/><rect x="211" y="90" width="100" height="20" rx="3" ry="3" fill="#f8cecc" stroke="#b85450" stroke-width="22" pointer-events="all"/><path d="M 141 230 L 136 230 Q 131 230 131 220 L 131 160 Q 131 150 135.47 141.06 L 146.53 118.94 Q 151 110 151 120 L 151 220 Q 151 230 146 230 Z" fill="#e1d5e7" stroke="#9673a6" stroke-width="22" stroke-miterlimit="10" pointer-events="all"/><path d="M 21 230 L 16 230 Q 11 230 11 220 L 11 160 Q 11 150 15.47 141.06 L 26.53 118.94 Q 31 110 31 120 L 31 220 Q 31 230 26 230 Z" fill="#e1d5e7" stroke="#9673a6" stroke-width="22" stroke-miterlimit="10" transform="translate(21,0)scale(-1,1)translate(-21,0)" pointer-events="all"/><path d="M 65.24 103.44 L 35 75.22 Q 27.69 68.4 37.69 68.4 L 48.98 68.4 Q 58.98 68.4 66.29 75.22 L 126.77 131.65 Q 134.08 138.47 126.77 145.3 L 66.29 201.73 Q 58.98 208.55 48.98 208.55 L 37.69 208.55 Q 27.69 208.55 35 201.73 L 95.48 145.3 Q 102.79 138.47 95.48 131.65 Z" fill="#f8cecc" stroke="#b85450" stroke-width="22" stroke-miterlimit="10" transform="rotate(90,80.88,138.48)" pointer-events="all"/><rect x="11" y="290" width="300" height="20" rx="3" ry="3" fill="#f8cecc" stroke="#b85450" stroke-width="22" pointer-events="all"/><rect x="11" y="10" width="300" height="20" rx="3" ry="3" fill="#e1d5e7" stroke="#9673a6" stroke-width="22" pointer-events="all"/><path d="M 20.88 111.56 L 80.88 171.56 L 140.88 111.56" fill="none" stroke="#b85450" stroke-width="22" stroke-miterlimit="10" pointer-events="stroke"/></g></svg>