<?xml version="1.0" encoding="UTF-8"?>
<!DOCTYPE svg PUBLIC "-//W3C//DTD SVG 1.1//EN" "http://www.w3.org/Graphics/SVG/1.1/DTD/svg11.dtd">
<svg xmlns="http://www.w3.org/2000/svg" xmlns:xlink="http://www.w3.org/1999/xlink" version="1.1" width="220px" height="300px" viewBox="-0.5 -0.5 220 300"><defs/><g><ellipse cx="190" cy="90" rx="20" ry="20" fill="#dae8fc" stroke="#6c8ebf" stroke-width="20" pointer-events="all"/><path d="M 46 102 L 94 138" fill="none" stroke="#6c8ebf" stroke-width="20" stroke-miterlimit="10" pointer-events="stroke"/><path d="M 46 78 L 94 42" fill="none" stroke="#6c8ebf" stroke-width="20" stroke-miterlimit="10" pointer-events="stroke"/><ellipse cx="30" cy="90" rx="20" ry="20" fill="#dae8fc" stroke="#6c8ebf" stroke-width="20" pointer-events="all"/><path d="M 126 42 L 174 78" fill="none" stroke="#6c8ebf" stroke-width="20" stroke-miterlimit="10" pointer-events="stroke"/><path d="M 110 50 L 110 130" fill="none" stroke="#9673a6" stroke-width="20" stroke-miterlimit="10" pointer-events="stroke"/><ellipse cx="110" cy="30" rx="20" ry="20" fill="#dae8fc" stroke="#6c8ebf" stroke-width="20" pointer-events="all"/><path d="M 126 162 L 174 198" fill="none" stroke="#6c8ebf" stroke-width="20" stroke-miterlimit="10" pointer-events="stroke"/><path d="M 110 170 L 110 250" fill="none" stroke="#9673a6" stroke-width="20" stroke-miterlimit="10" pointer-events="stroke"/><ellipse cx="110" cy="150" rx="20" ry="20" fill="#dae8fc" stroke="#6c8ebf" stroke-width="20" pointer-events="all"/><path d="M 174 222 L 126 258" fill="none" stroke="#6c8ebf" stroke-width="20" stroke-miterlimit="10" pointer-events="stroke"/><ellipse cx="190" cy="210" rx="20" ry="20" fill="#dae8fc" stroke="#6c8ebf" stroke-width="20" pointer-events="all"/><path d="M 94 258 L 46 222" fill="none" stroke="#6c8ebf" stroke-width="20" stroke-miterlimit="10" pointer-events="stroke"/><ellipse cx="110" cy="270" rx="20" ry="20" fill="#dae8fc" stroke="#6c8ebf" stroke-width="20" pointer-events="all"/><ellipse cx="30" cy="210" rx="20" ry="20" fill="#dae8fc" stroke="#6c8ebf" stroke-width="20" pointer-events="all"/></g></svg>