<svg xmlns="http://www.w3.org/2000/svg" viewBox="0 0 511 511">
  <g fill="#6C91CF" stroke="#6C91CF">
    <path d="M487.5 24h-464C10.5 24 0 34.5 0 47.5v304c0 13 10.5 23.5 23.5 23.5h158L170 416h-34.3c-4 0-7.5 3.4-7.5 7.5s3.4 7.5 7.5 7.5h136c4 0 7.5-3.4 7.5-7.5s-3.4-7.5-7.5-7.5h-86l11.7-41h74.3c4 0 7.5-3.4 7.5-7.5s-3.4-7.5-7.5-7.5h-248c-4.7 0-8.5-3.8-8.5-8.5v-304c0-4.7 3.8-8.5 8.5-8.5h464c4.7 0 8.5 3.8 8.5 8.5v304c0 4 3.4 7.5 7.5 7.5s7.5-3.4 7.5-7.5v-304c0-13-10.5-23.5-23.5-23.5z"/>
    <path d="M471.5 56h-432c-4 0-7.5 3.4-7.5 7.5v272c0 4 3.4 7.5 7.5 7.5h232c4 0 7.5-3.4 7.5-7.5s-3.4-7.5-7.5-7.5H47V135h417v32.5c0 4 3.4 7.5 7.5 7.5s7.5-3.4 7.5-7.5v-104c0-4-3.4-7.5-7.5-7.5zM47 120V71h417v49H47z"/>
    <path d="M391.5 88h-240c-4 0-7.5 3.4-7.5 7.5s3.4 7.5 7.5 7.5h240c4 0 7.5-3.4 7.5-7.5s-3.4-7.5-7.5-7.5zM439.5 88h-16c-4 0-7.5 3.4-7.5 7.5s3.4 7.5 7.5 7.5h16c4 0 7.5-3.4 7.5-7.5s-3.4-7.5-7.5-7.5zM71.5 88c-2 0-4 .8-5.3 2.2-1.4 1.4-2.2 3.3-2.2 5.3s.8 4 2.2 5.3c1.4 1.4 3.3 2.2 5.3 2.2s4-.8 5.3-2.2c1.4-1.4 2.2-3.3 2.2-5.3s-.8-4-2.2-5.3c-1.4-1.4-3.3-2.2-5.3-2.2zM95.5 88c-2 0-4 .8-5.3 2.2-1.4 1.4-2.2 3.3-2.2 5.3s.8 4 2.2 5.3c1.4 1.4 3.3 2.2 5.3 2.2s4-.8 5.3-2.2c1.4-1.4 2.2-3.3 2.2-5.3s-.8-4-2.2-5.3c-1.4-1.4-3.3-2.2-5.3-2.2zM119.5 88c-2 0-4 .8-5.3 2.2-1.4 1.4-2.2 3.3-2.2 5.3s.8 4 2.2 5.3c1.4 1.4 3.3 2.2 5.3 2.2s4-.8 5.3-2.2c1.4-1.4 2.2-3.3 2.2-5.3s-.8-4-2.2-5.3c-1.4-1.4-3.3-2.2-5.3-2.2zM455.5 192h-136c-13 0-23.5 10.5-23.5 23.5v248c0 13 10.5 23.5 23.5 23.5h136c13 0 23.5-10.5 23.5-23.5v-248c0-13-10.5-23.5-23.5-23.5zM311 239h153v33H311v-33zm0 48h153v153H311V287zm8.5-80h136c4.7 0 8.5 3.8 8.5 8.5v8.5H311v-8.5c0-4.7 3.8-8.5 8.5-8.5zm136 265h-136c-4.7 0-8.5-3.8-8.5-8.5V455h153v8.5c0 4.7-3.8 8.5-8.5 8.5z"/>
    <path d="M415.5 248h-88c-4 0-7.5 3.4-7.5 7.5s3.4 7.5 7.5 7.5h88c4 0 7.5-3.4 7.5-7.5s-3.4-7.5-7.5-7.5zM447.5 248h-8c-4 0-7.5 3.4-7.5 7.5s3.4 7.5 7.5 7.5h8c4 0 7.5-3.4 7.5-7.5s-3.4-7.5-7.5-7.5zM87.5 160C79 160 72 167 72 175.5v104c0 8.5 7 15.5 15.5 15.5h120c8.5 0 15.5-7 15.5-15.5v-104c0-8.5-7-15.5-15.5-15.5h-120zm71.3 67.5L208 184v87l-49.2-43.5zm-11.3-10L99.3 175h96.4l-48.2 42.5zM87 271v-87l49.2 43.5L87 271zm60.5-33.5l48.2 42.5H99.3l48.2-42.5zM255.5 175h184c4 0 7.5-3.4 7.5-7.5s-3.4-7.5-7.5-7.5h-184c-4 0-7.5 3.4-7.5 7.5s3.4 7.5 7.5 7.5zM271.5 200h-16c-4 0-7.5 3.4-7.5 7.5s3.4 7.5 7.5 7.5h16c4 0 7.5-3.4 7.5-7.5s-3.4-7.5-7.5-7.5zM271.5 240h-16c-4 0-7.5 3.4-7.5 7.5s3.4 7.5 7.5 7.5h16c4 0 7.5-3.4 7.5-7.5s-3.4-7.5-7.5-7.5zM271.5 280h-16c-4 0-7.5 3.4-7.5 7.5s3.4 7.5 7.5 7.5h16c4 0 7.5-3.4 7.5-7.5s-3.4-7.5-7.5-7.5zM431.5 304h-88c-8.5 0-15.5 7-15.5 15.5v56c0 8.5 7 15.5 15.5 15.5h88c8.5 0 15.5-7 15.5-15.5v-56c0-8.5-7-15.5-15.5-15.5zm-30 43.5L432 328v39l-30.5-19.5zm-14-9L356.7 319h61.6l-30.8 19.6zM343 367v-39l30.5 19.5L343 367zm44.5-10.6l30.8 19.6h-61.6l30.8-19.6zM439.5 408h-104c-4 0-7.5 3.4-7.5 7.5s3.4 7.5 7.5 7.5h104c4 0 7.5-3.4 7.5-7.5s-3.4-7.5-7.5-7.5z"/>
  </g>
</svg>
