<?xml version="1.0" encoding="UTF-8"?>
<!DOCTYPE svg PUBLIC "-//W3C//DTD SVG 1.1//EN" "http://www.w3.org/Graphics/SVG/1.1/DTD/svg11.dtd">
<svg xmlns="http://www.w3.org/2000/svg" xmlns:xlink="http://www.w3.org/1999/xlink" version="1.1" width="480px" height="721px" viewBox="-0.5 -0.5 480 721"><defs/><g><ellipse cx="400" cy="200" rx="40" ry="40" fill="#dae8fc" stroke="#6c8ebf" stroke-width="80" pointer-events="all"/><path d="M 108.28 228.28 L 211.72 331.72" fill="none" stroke="#6c8ebf" stroke-width="32" stroke-miterlimit="10" pointer-events="stroke"/><path d="M 112 176 L 208 104" fill="none" stroke="#6c8ebf" stroke-width="32" stroke-miterlimit="10" pointer-events="stroke"/><ellipse cx="80" cy="200" rx="40" ry="40" fill="#dae8fc" stroke="#6c8ebf" stroke-width="80" pointer-events="all"/><path d="M 272 104 L 368 176" fill="none" stroke="#6c8ebf" stroke-width="48" stroke-miterlimit="10" pointer-events="stroke"/><path d="M 240 120 L 240 320" fill="none" stroke="#9673a6" stroke-width="48" stroke-miterlimit="10" pointer-events="stroke"/><ellipse cx="240" cy="80" rx="40" ry="40" fill="#dae8fc" stroke="#6c8ebf" stroke-width="80" pointer-events="all"/><path d="M 268.28 388.28 L 371.72 491.72" fill="none" stroke="#6c8ebf" stroke-width="48" stroke-miterlimit="10" pointer-events="stroke"/><path d="M 240 400 L 240 600" fill="none" stroke="#9673a6" stroke-width="48" stroke-miterlimit="10" pointer-events="stroke"/><ellipse cx="240" cy="360" rx="40" ry="40" fill="#dae8fc" stroke="#6c8ebf" stroke-width="80" pointer-events="all"/><path d="M 368 544 L 272 616" fill="none" stroke="#6c8ebf" stroke-width="32" stroke-miterlimit="10" pointer-events="stroke"/><ellipse cx="400" cy="520" rx="40" ry="40" fill="#dae8fc" stroke="#6c8ebf" stroke-width="80" pointer-events="all"/><path d="M 208 616 L 112 544" fill="none" stroke="#6c8ebf" stroke-width="32" stroke-miterlimit="10" pointer-events="stroke"/><ellipse cx="240" cy="640" rx="40" ry="40" fill="#dae8fc" stroke="#6c8ebf" stroke-width="80" pointer-events="all"/><ellipse cx="80" cy="520" rx="40" ry="40" fill="#dae8fc" stroke="#6c8ebf" stroke-width="80" pointer-events="all"/><path d="M 369.86 544 L 273.86 616" fill="none" stroke="#6c8ebf" stroke-width="48" stroke-miterlimit="10" pointer-events="stroke"/><path d="M 209.86 616 L 113.86 544" fill="none" stroke="#6c8ebf" stroke-width="48" stroke-miterlimit="10" pointer-events="stroke"/><path d="M 110.14 228.28 L 213.58 331.72" fill="none" stroke="#6c8ebf" stroke-width="48" stroke-miterlimit="10" pointer-events="stroke"/><path d="M 113.86 176 L 209.86 104" fill="none" stroke="#6c8ebf" stroke-width="48" stroke-miterlimit="10" pointer-events="stroke"/></g></svg>