<?xml version="1.0" encoding="UTF-8"?>
<!DOCTYPE svg PUBLIC "-//W3C//DTD SVG 1.1//EN" "http://www.w3.org/Graphics/SVG/1.1/DTD/svg11.dtd">
<svg xmlns="http://www.w3.org/2000/svg" xmlns:xlink="http://www.w3.org/1999/xlink" version="1.1" width="300px" height="300px" viewBox="-0.5 -0.5 300 300"><defs/><g><ellipse cx="230" cy="90" rx="20" ry="20" fill="none" stroke="#6c8ebf" stroke-width="20" pointer-events="all"/><path d="M 86 102 L 134 138" fill="none" stroke="#6c8ebf" stroke-width="20" stroke-miterlimit="10" pointer-events="stroke"/><path d="M 86 78 L 134 42" fill="none" stroke="#6c8ebf" stroke-width="20" stroke-miterlimit="10" pointer-events="stroke"/><ellipse cx="70" cy="90" rx="20" ry="20" fill="none" stroke="#6c8ebf" stroke-width="20" pointer-events="all"/><path d="M 166 42 L 214 78" fill="none" stroke="#6c8ebf" stroke-width="20" stroke-miterlimit="10" pointer-events="stroke"/><path d="M 150 50 L 150 130" fill="none" stroke="#9673a6" stroke-width="20" stroke-miterlimit="10" pointer-events="stroke"/><ellipse cx="150" cy="30" rx="20" ry="20" fill="none" stroke="#6c8ebf" stroke-width="20" pointer-events="all"/><path d="M 166 162 L 214 198" fill="none" stroke="#6c8ebf" stroke-width="20" stroke-miterlimit="10" pointer-events="stroke"/><path d="M 150 170 L 150 250" fill="none" stroke="#9673a6" stroke-width="20" stroke-miterlimit="10" pointer-events="stroke"/><ellipse cx="150" cy="150" rx="20" ry="20" fill="none" stroke="#6c8ebf" stroke-width="20" pointer-events="all"/><path d="M 214 222 L 166 258" fill="none" stroke="#6c8ebf" stroke-width="20" stroke-miterlimit="10" pointer-events="stroke"/><ellipse cx="230" cy="210" rx="20" ry="20" fill="none" stroke="#6c8ebf" stroke-width="20" pointer-events="all"/><path d="M 134 258 L 86 222" fill="none" stroke="#6c8ebf" stroke-width="20" stroke-miterlimit="10" pointer-events="stroke"/><ellipse cx="150" cy="270" rx="20" ry="20" fill="none" stroke="#6c8ebf" stroke-width="20" pointer-events="all"/><ellipse cx="70" cy="210" rx="20" ry="20" fill="none" stroke="#6c8ebf" stroke-width="20" pointer-events="all"/><ellipse cx="30" cy="150" rx="20" ry="20" fill="none" stroke="none" pointer-events="all"/><ellipse cx="270" cy="150" rx="20" ry="20" fill="none" stroke="none" pointer-events="all"/></g></svg>